<svg version="1.2" xmlns="http://www.w3.org/2000/svg" viewBox="0 0 442 440" width="442" height="440">
	<title>web-scrap-svg</title>
	<style>
		.s0 { opacity: .2;fill: #000000 } 
		.s1 { fill: none;stroke: #000000;stroke-linecap: round;stroke-linejoin: round } 
		.s2 { fill: #000000 } 
		.s3 { fill: #263238 } 
		.s4 { fill: #ffffff;stroke: #263238;stroke-linecap: round;stroke-linejoin: round } 
		.s5 { fill: #1a007b;stroke: #263238;stroke-linecap: round;stroke-linejoin: round } 
		.s6 { fill: #263238;stroke: #263238;stroke-linecap: round;stroke-linejoin: round } 
		.s7 { fill: none;stroke: #263238;stroke-linecap: round;stroke-linejoin: round } 
		.s8 { fill: #575757;stroke: #263238;stroke-linecap: round;stroke-linejoin: round } 
		.s9 { fill: none;stroke: #787878;stroke-linecap: round;stroke-linejoin: round } 
		.s10 { fill: none;stroke: #263238;stroke-linecap: round;stroke-linejoin: round;stroke-width: 2 } 
		.s11 { fill: none;stroke: #ffffff;stroke-linecap: round;stroke-linejoin: round;stroke-width: 2 } 
		.s12 { fill: none;stroke: #263238;stroke-linecap: round } 
		.s13 { fill: #d1d1d1;stroke: #263238;stroke-linecap: round;stroke-linejoin: round } 
		.s14 { fill: #a6a6a6;stroke: #263238;stroke-linecap: round;stroke-linejoin: round } 
	</style>
	<g id="freepik--graphics-2--inject-3">
		<g id="elfctetfectkp">
			<path id="Layer" fill-rule="evenodd" class="s0" d="m30.8 206.3c4.5-0.1 8.9 1.6 12.1 4.7 3.3 3.2 5.1 7.5 5.1 12 0 4.5-1.8 8.8-5.1 12-3.2 3.1-7.6 4.8-12.1 4.7q-0.9 0-1.8-0.1-0.9-0.1-1.7-0.3-0.9-0.2-1.8-0.5-0.8-0.3-1.7-0.7l-4.3 7.7q0.3 0.5 0.4 1 0.1 0.5 0.1 1 0 0.5-0.1 1-0.1 0.6-0.4 1l-12 20.8c-0.5 1-1.4 1.7-2.4 2-1.1 0.3-2.2 0.2-3.2-0.4-0.9-0.5-1.6-1.4-1.8-2.5-0.3-1-0.1-2.2 0.5-3.1l12-20.8q0.2-0.4 0.6-0.8 0.4-0.4 0.8-0.6 0.5-0.3 1-0.4 0.5-0.2 1-0.2l4.4-7.8c-2.7-2.2-4.7-5.1-5.6-8.4-1-3.4-0.9-6.9 0.3-10.2 1.1-3.2 3.2-6.1 6-8.1 2.9-2 6.2-3 9.7-3.1zm5.2 29.4c1.6-0.7 3.2-1.7 4.4-3 1.3-1.2 2.3-2.7 3-4.4 0.7-1.7 1.1-3.4 1.1-5.2 0-5.6-3.4-10.6-8.5-12.7-5.1-2.2-11-1-14.9 2.9-4 3.9-5.2 9.8-3 15 2.1 5.1 7.1 8.4 12.6 8.4 1.8 0 3.6-0.3 5.3-1z"/>
		</g>
		<g id="el6fzkfrnkbh9">
			<path id="Layer" fill-rule="evenodd" class="s0" d="m344.4 29.4c1.3-4.9 4.7-8.9 9.3-11 4.6-2.2 9.9-2.1 14.4 0.2 4.5 2.2 7.8 6.4 8.8 11.4 1.1 4.9-0.1 10.1-3.3 14l6.4 6.1q0.5-0.2 1-0.2 0.6 0 1.1 0.2 0.5 0.1 1 0.4 0.4 0.2 0.8 0.6l17.2 16.7q0.4 0.4 0.7 0.8 0.2 0.5 0.4 1 0.1 0.5 0.1 1 0 0.6-0.1 1.1 0 0.2-0.1 0.5-0.1 0.2-0.3 0.4-0.1 0.3-0.2 0.5-0.2 0.2-0.4 0.4-0.5 0.6-1.3 0.9-0.7 0.3-1.5 0.3-0.8 0-1.5-0.3-0.8-0.3-1.3-0.8l-17.3-16.8q-0.4-0.4-0.6-0.8-0.3-0.4-0.4-1-0.2-0.5-0.2-1 0-0.5 0.1-1l-6.4-6.2c-2.8 2.1-6.1 3.3-9.6 3.5-3.5 0.1-6.9-0.9-9.8-2.8-2.9-1.9-5.1-4.7-6.3-7.9-1.3-3.2-1.5-6.8-0.7-10.1zm29.8 2.1c-0.3-1.8-0.9-3.5-1.8-5-0.9-1.6-2.1-2.9-3.6-4-1.4-1.1-3.1-1.8-4.8-2.3-5.4-1.3-11 0.7-14.4 5.1-3.3 4.5-3.6 10.5-0.7 15.2 2.8 4.8 8.3 7.4 13.7 6.6 5.5-0.8 10-4.9 11.3-10.2 0.5-1.8 0.6-3.6 0.3-5.4z"/>
		</g>
		<g id="el7axd0mgehca">
			<g id="Layer" style="opacity: .2">
				<g id="el8b4g9lhvxbw">
					<path id="Layer" class="s1" d="m412 158.4c-9.6 1.5-18.6-5-20.1-14.7-1.6-9.6 5-18.6 14.6-20.1 9.6-1.5 18.6 5 20.2 14.7 1.5 9.6-5.1 18.6-14.7 20.1z"/>
				</g>
				<path id="elejewdjfmpil" class="s1" d="m380 225.3q-0.6 0.4-1.3 0.7-0.6 0.2-1.2 0.5-0.6 0.2-1.3 0.5-0.4 0-0.8 0-0.4-0.1-0.8-0.2-0.5 0-0.9-0.1-0.4 0-0.8-0.1-0.5 0-0.9 0-0.5-0.1-1-0.2v-4.9l-2-2.5-2.8-1.1-2.5-3.9-1.4-2-2.3-2-1.2-1.8-0.2-3.1q0-0.2 0-0.5 0-0.2 0.1-0.5 0-0.2 0-0.4 0.1-0.3 0.1-0.5 0.8-2 2-3.8 1.2-1.8 2.7-3.2 1.6-1.4 3.5-2.5 1.9-1 4-1.5 0.1 0.1 0.2 0.2 0.1 0.1 0.1 0.3 0.1 0.1 0.1 0.3 0.1 0.1 0.1 0.3l-0.5 4-2.3 5.9-0.6 3.1-1.7 2-1.4 3.4 2 3.3q0.3 0.2 0.6 0.4 0.3 0.1 0.7 0.2 0.3 0.1 0.6 0.2 0.3 0 0.7 0.1c1.1 0 1.1 0.5 2.8-0.3q0.3-0.2 0.6-0.3 0.3-0.2 0.6-0.3 0.4-0.1 0.7-0.3 0.3-0.1 0.6-0.2l6.2 2 1.7 2 0.9 2.5 0.2 1.4-2.8 2.3q-0.6 0.3-1.1 0.6z"/>
				<path id="elp8plobo1e99" class="s1" d="m382.5 193.3c1.9 0.8 3.5 1.9 5 3.3 1.5 1.4 2.7 3 3.6 4.8 0.9 1.8 1.5 3.8 1.8 5.8 0.2 2 0.1 4-0.3 6l-1-2.6c0 0-2-3.1-2-5.1 0-1.9-0.8-1.6-0.8-1.6l-2.3 0.8h-2.5q-0.6-0.3-1.1-0.6-0.5-0.4-0.9-0.8-0.5-0.4-0.9-0.8-0.4-0.4-0.8-0.9c-1.2-1.7 0.8-4.5 0.8-4.5l0.9-3.1 0.5-0.8z"/>
			</g>
		</g>
		<g id="elboqziz74kpn">
			<g id="Layer" style="opacity: .2">
				<path id="elai66bfioepl" class="s1" d="m66.8 73.6c-9.7 0-17.6-7.9-17.6-17.7 0-9.7 7.9-17.6 17.6-17.6 9.8 0 17.7 7.9 17.7 17.6 0 9.8-7.9 17.7-17.7 17.7z"/>
				<path id="el7uc6xslsc4e" class="s1" d="m71.4 71.9q-0.6 0.3-1.2 0.6-0.6 0.3-1.3 0.6-0.6 0.3-1.2 0.5-0.5 0-0.9 0-0.4-0.1-0.8-0.2-0.4 0-0.9-0.1-0.4 0-0.8 0-0.4-0.1-0.9-0.1-0.5-0.1-1-0.2v-4.8l-2-2.6-2.8-1.1-2.5-3.9-1.4-2-2.3-2-1.1-1.7-0.3-3.1q0-0.3 0-0.5 0.1-0.3 0.1-0.5 0-0.3 0.1-0.6 0-0.2 0.1-0.5 0.7-2 1.9-3.7 1.2-1.8 2.8-3.3 1.6-1.4 3.5-2.4 1.9-1 3.9-1.6 0.1 0.1 0.2 0.3 0.1 0.1 0.2 0.2 0.1 0.2 0.1 0.3 0 0.2 0.1 0.3l-0.6 4-2.3 5.9-0.5 3.1-1.7 2-1.4 3.4 2 3.4q0.3 0.2 0.6 0.3 0.3 0.1 0.6 0.2 0.3 0.2 0.7 0.2 0.3 0.1 0.6 0.1c1.1 0 1.1 0.6 2.8-0.3q0.3-0.1 0.7-0.3 0.3-0.1 0.6-0.3 0.3-0.1 0.6-0.2 0.4-0.2 0.7-0.3l6.2 2 1.7 2 0.8 2.6 0.3 1.4-2.8 2.2q-0.6 0.4-1.2 0.7z"/>
				<path id="elimiqihac29d" class="s1" d="m79 43.1c1.4 1.4 2.7 3 3.6 4.8 0.9 1.8 1.5 3.8 1.7 5.8 0.3 2 0.2 4-0.3 6l-1-2.6c0 0-2-3.1-2-5 0-2-0.8-1.7-0.8-1.7l-2.3 0.8h-2.5q-0.5-0.3-1-0.6-0.5-0.4-1-0.8-0.5-0.3-0.9-0.8-0.4-0.4-0.8-0.9c-1.1-1.7 0.9-4.5 0.9-4.5l0.8-3.1 0.5-0.7c1.9 0.8 3.6 1.9 5.1 3.3z"/>
			</g>
		</g>
		<g id="eln401dm8yiv">
			<g id="Layer" style="opacity: .2">
				<g id="el7b90m6x2ehc">
					<path id="Layer" class="s1" d="m158 234.2c-13.4 3.3-26.9-4.8-30.2-18.2-3.3-13.3 4.8-26.8 18.2-30.1 13.3-3.3 26.8 4.8 30.1 18.1 3.3 13.4-4.8 26.9-18.1 30.2z"/>
				</g>
				<path id="elwc0c5o5evj" class="s1" d="m87.1 274.6q-0.6 0-1.2 0-0.6-0.1-1.2-0.2-0.6 0-1.2-0.1-0.6-0.1-1.2-0.1-0.6 0-1.2 0-0.7-0.2-1.4-0.4v-6.8l-2.8-3.6-4-1.6-3.6-5.6-2-2.7-3.1-2.8-1.6-2.4-0.4-4.4q0-0.3 0-0.7 0.1-0.3 0.1-0.6 0.1-0.4 0.1-0.7 0.1-0.3 0.2-0.7 1-2.8 2.7-5.3 1.7-2.5 3.9-4.6 2.3-2 4.9-3.4 2.7-1.4 5.6-2.2 0.2 0.2 0.3 0.3 0.1 0.2 0.2 0.4 0.1 0.2 0.2 0.4 0 0.2 0.1 0.4l-0.8 5.6-3.2 8.3-0.8 4.4-2.4 2.8-2 4.8 2.8 4.7q0.4 0.3 0.8 0.5 0.5 0.2 0.9 0.3 0.5 0.2 0.9 0.3 0.5 0.1 1 0.1c1.6 0 1.6 0.8 4-0.4q0.4-0.2 0.8-0.4 0.5-0.2 0.9-0.4 0.5-0.2 0.9-0.4 0.5-0.2 1-0.4l8.7 2.8 2.4 2.8 1.2 3.6 0.4 2-4 3.2c0 0-4.5 2.6-6.9 3.2z"/>
				<path id="elxe4xg0q8zos" class="s1" d="m103 231.7c2.1 2 3.8 4.3 5.1 6.8 1.3 2.5 2.1 5.3 2.5 8.1 0.3 2.9 0.2 5.7-0.4 8.5l-1.5-3.6c0 0-2.8-4.4-2.8-7.2 0-2.8-1.2-2.4-1.2-2.4l-3.1 1.2h-3.6c0 0-3.6-2-5.2-4.3-1.6-2.4 1.2-6.4 1.2-6.4l1.2-4.4 0.7-1c2.6 1.1 5 2.7 7.1 4.7z"/>
			</g>
		</g>
		<g id="el4q8you820lk">
			<g id="Layer" style="opacity: .2">
				<path id="elis7uwkiq63" class="s2" d="m77.1 294.8v7.3h-1.8v-16.2h1.8v7.3h4v-7.3h1.8v16.2h-1.8v-7.3z"/>
				<path id="elx7rmccrhc4s" class="s2" d="m87.2 302.1v-14.6h-3v-1.6h7.7v1.6h-3v14.6z"/>
				<path id="elefp1v6an9m" class="s2" d="m95.5 302.1v-14.6h-3v-1.6h7.8v1.6h-3v14.6z"/>
				<path id="elg7fl7rj3827" fill-rule="evenodd" class="s2" d="m105.1 285.9c2.6 0 3.6 1.5 3.6 4v2c0 2.5-1.2 3.9-3.7 3.9h-1.6v6.4h-1.9v-16.3zm-0.1 8.2c1.4 0 2-0.6 2-2.2v-2.2c0-1.4-0.5-2.2-1.9-2.2h-1.7v6.6z"/>
				<path id="elzf46uykl3xd" class="s2" d="m111.9 291v2.3h-1.7v-2.3zm0 8.9v2.2h-1.8v-2.2z"/>
				<path id="elp68zqk8zrn" class="s2" d="m121.2 285.9l-6.4 16.2h-1.6l6.4-16.2z"/>
				<path id="elmcog6tusug" class="s2" d="m125.8 285.9l-6.5 16.2h-1.5l6.4-16.2z"/>
				<path id="elwbnbajvz8dk" class="s2" d="m131.4 302.1h-2.5l-2.2-16.2h1.7l1.9 13.8 1.9-13.8h1.7l1.8 13.8 1.9-13.8h1.6l-2.3 16.2h-2.3l-1.6-11z"/>
				<path id="elksa05so6vt" class="s2" d="m144.9 302.1h-2.5l-2.2-16.2h1.8l1.9 13.8 1.8-13.8h1.8l1.8 13.8 1.8-13.8h1.6l-2.2 16.2h-2.4l-1.6-11z"/>
				<path id="el5crk8ellmoh" class="s2" d="m158.5 302.1h-2.5l-2.2-16.2h1.7l1.9 13.8 1.9-13.8h1.8l1.7 13.8 1.9-13.8h1.6l-2.3 16.2h-2.4l-1.5-11z"/>
				<path id="elfnbdzi7v7qr" class="s2" d="m168.5 299.9v2.2h-1.7v-2.2z"/>
				<path id="elb1hlfd0mun8" class="s2" d="m172.1 299.9v2.2h-1.7v-2.2z"/>
				<path id="elqz1jbo3l02" class="s2" d="m175.7 299.9v2.2h-1.7v-2.2z"/>
			</g>
		</g>
		<g id="elio6hfpuclcj">
			<g id="Layer" style="opacity: .2">
				<path id="el1imj34rvezf" class="s2" d="m342.8 89.2v7.3h-1.8v-16.2h1.8v7.3h4v-7.3h1.8v16.3h-1.8v-7.4z"/>
				<path id="eldlbog1sxy8a" class="s2" d="m352.8 96.6v-14.7h-3v-1.6h7.8v1.6h-3v14.7z"/>
				<path id="el9zo5krgrc6a" class="s2" d="m361.2 96.6v-14.7h-3v-1.6h7.8v1.6h-3v14.7z"/>
				<path id="elch2t4npaue7" fill-rule="evenodd" class="s2" d="m370.8 80.3c2.5 0 3.6 1.5 3.6 4v2c0 2.6-1.2 3.9-3.8 3.9h-1.6v6.4h-1.8v-16.3zm-0.1 8.2c1.3 0 2-0.6 2-2.2v-2.1c0-1.5-0.6-2.3-1.9-2.3h-1.8v6.6z"/>
				<path id="eltuo1fjjovrp" class="s2" d="m377.6 85.4v2.3h-1.8v-2.3zm0 8.9v2.2h-1.7v-2.2z"/>
				<path id="elk3wwkf70x1i" class="s2" d="m386.9 80.3l-6.4 16.3h-1.6l6.4-16.3z"/>
				<path id="elddhb75g8srm" class="s2" d="m391.4 80.3l-6.4 16.3h-1.6l6.4-16.3z"/>
				<path id="elnmtoki8qj6" class="s2" d="m397.1 96.6h-2.5l-2.3-16.3h1.8l1.9 13.8 1.8-13.8h1.8l1.8 13.9 1.8-13.9h1.6l-2.2 16.2h-2.4l-1.5-11z"/>
				<path id="elb5p8is8jr4o" class="s2" d="m410.6 96.6h-2.5l-2.2-16.3h1.7l1.9 13.8 1.9-13.8h1.8l1.8 13.9 1.8-13.9h1.6l-2.2 16.3h-2.4l-1.6-11z"/>
				<path id="elpggq3480jl" class="s2" d="m424.1 96.6h-2.4l-2.3-16.3h1.8l1.9 13.8 1.8-13.8h1.8l1.8 13.9 1.8-13.9h1.6l-2.2 16.3h-2.4l-1.6-11z"/>
				<path id="el07m6j297foib" class="s2" d="m434.2 94.3v2.3h-1.8l0.1-2.3z"/>
				<path id="elzxupbiwfo1e" class="s2" d="m437.8 94.3v2.3h-1.8l0.1-2.3z"/>
				<path id="elmtcxvjwrtrt" class="s2" d="m441.4 94.3v2.3h-1.8l0.1-2.3z"/>
			</g>
		</g>
		<g id="ela3y0lxhda55">
			<g id="Layer" style="opacity: .2">
				<path id="ell02k1qlrko" class="s2" d="m23.8 18.2v7.3h-1.8v-16.2h1.8v7.3h4v-7.3h1.8v16.2h-1.8v-7.3z"/>
				<path id="elo1b1epmmri" class="s2" d="m33.8 25.5v-14.6h-3v-1.6h7.8v1.6h-3v14.6z"/>
				<path id="el2reyybn7kdf" class="s2" d="m42.2 25.5v-14.6h-3v-1.6h7.8v1.6h-3v14.6z"/>
				<path id="elclolc4ydapn" fill-rule="evenodd" class="s2" d="m51.8 9.3c2.5 0 3.6 1.5 3.6 4v2c0 2.6-1.2 3.9-3.8 3.9h-1.6v6.4h-1.8v-16.3zm-0.1 8.2c1.3 0 2-0.6 2-2.2v-2.1c0-1.5-0.6-2.3-1.9-2.3h-1.8v6.6z"/>
				<path id="elw1j2vounp1g" class="s2" d="m58.6 14.4v2.3h-1.8v-2.3zm0 8.9v2.2h-1.7v-2.2z"/>
				<path id="ellb6jg3by7f" class="s2" d="m67.9 9.3l-6.5 16.2h-1.5l6.4-16.2z"/>
				<path id="el3utbe8x7g81" class="s2" d="m72.4 9.3l-6.4 16.2h-1.6l6.4-16.2z"/>
				<path id="elaggznkw691" class="s2" d="m78 25.5h-2.4l-2.3-16.2h1.8l1.9 13.8 1.8-13.8h1.8l1.8 13.9 1.8-13.9h1.6l-2.2 16.2h-2.4l-1.6-11z"/>
				<path id="elwrzm61f5b2s" class="s2" d="m91.6 25.5h-2.5l-2.2-16.2h1.8l1.9 13.8 1.8-13.8h1.8l1.8 13.9 1.8-13.9h1.6l-2.2 16.2h-2.4l-1.5-11z"/>
				<path id="elshlyugslgda" class="s2" d="m105.2 25.5h-2.5l-2.3-16.2h1.8l1.9 13.8 1.8-13.8h1.8l1.8 13.9 1.8-13.9h1.6l-2.2 16.2h-2.4l-1.5-11z"/>
				<path id="elu9b8o426lhf" class="s2" d="m115.2 23.3v2.2h-1.8v-2.2z"/>
				<path id="el12r49ma1evmk" class="s2" d="m118.8 23.3v2.2h-1.8v-2.2z"/>
				<path id="elvc60hgjmsiq" class="s2" d="m122.4 23.3v2.2h-1.8l0.1-2.2z"/>
			</g>
		</g>
	</g>
	<g id="freepik--graphic-1--inject-3">
		<path id="el2cvyu9nz7sv" fill-rule="evenodd" class="s3" d="m337.1 131c0 72-58.5 130.6-130.5 130.6-17.1 0-34.1-3.4-49.9-10-15.9-6.6-30.2-16.2-42.3-28.3-12.2-12.1-21.8-26.5-28.3-42.3-6.6-15.9-10-32.8-10-49.9 0-72 58.5-130.6 130.5-130.6 72 0 130.5 58.6 130.5 130.5zm-7-3.5q0 0 0 0.1zm0 0c-0.2-7.8-1.2-15.6-2.9-23.2-1.6-7.6-4-15-7.1-22.2-3.1-7.1-6.9-14-11.2-20.4-4.4-6.5-9.4-12.5-14.9-18q-3.4 3.1-7 5.9-3.6 2.8-7.4 5.3-3.8 2.6-7.7 4.9-4 2.2-8.1 4.2c5.8 19.1 9 40.8 9.3 63.5zm-123.5 127c15.4 0 30.2-12.5 41.4-35.3q1.1-2.1 2-4.3 1-2.1 1.9-4.3 0.9-2.2 1.8-4.5 0.8-2.2 1.6-4.5c-7.7-3.2-15.7-5.7-23.9-7.4-8.1-1.7-16.5-2.5-24.8-2.5-8.3 0-16.7 0.8-24.8 2.5-8.2 1.7-16.2 4.2-23.9 7.5q0.8 2.2 1.6 4.4 0.9 2.2 1.8 4.4 0.9 2.2 1.8 4.4 1 2.2 2.1 4.3c11.3 22.7 26 35.2 41.4 35.2zm0-69.7q6.5 0 13 0.6 6.5 0.7 12.9 1.9 6.4 1.3 12.7 3.2 6.2 2 12.3 4.5c5.3-18.2 8.3-38.9 8.6-60.5h-119c0.3 21.6 3.3 42.3 8.7 60.5q6-2.5 12.2-4.5 6.3-1.9 12.7-3.2 6.4-1.3 12.9-1.9 6.5-0.7 13-0.7zm59.5-57.3c-0.3-21.6-3.3-42.3-8.7-60.4q-6 2.5-12.2 4.4-6.3 1.9-12.7 3.2-6.4 1.3-12.9 2-6.5 0.6-13 0.6-6.5 0-13-0.6-6.5-0.7-12.9-2-6.4-1.3-12.7-3.2-6.2-1.9-12.2-4.5c-5.4 18.2-8.4 38.9-8.7 60.5zm-59.5-120c-15.4 0.1-30.1 12.5-41.4 35.3q-1.1 2.1-2.1 4.3-0.9 2.2-1.8 4.4-0.9 2.2-1.8 4.4-0.8 2.2-1.6 4.5 5.8 2.5 11.7 4.3 6 1.9 12.2 3.2 6.1 1.2 12.3 1.9 6.2 0.6 12.5 0.6 6.3 0 12.5-0.6 6.2-0.7 12.4-1.9 6.1-1.3 12.1-3.2 5.9-1.8 11.7-4.3-0.8-2.3-1.6-4.5-0.8-2.2-1.8-4.4-0.9-2.2-1.8-4.4-1-2.2-2.1-4.3c-11.2-22.8-26-35.2-41.4-35.3zm69.6 21.6q-6.7-4.6-13.9-8.2-7.2-3.7-14.8-6.4-7.6-2.6-15.5-4.3c8.3 6.6 15.9 16.6 22.3 29.5q1.1 2.2 2.1 4.4 1 2.1 1.9 4.4 0.9 2.2 1.8 4.4 0.8 2.3 1.6 4.6 3.7-1.9 7.2-4 3.6-2 7-4.4 3.4-2.3 6.7-4.8 3.2-2.5 6.3-5.3-6-5.4-12.7-9.9zm-117.3 10.6c6.5-13 14-22.9 22.4-29.5q-7.9 1.7-15.6 4.3-7.6 2.7-14.8 6.4-7.2 3.6-13.8 8.2-6.7 4.5-12.7 9.9 3.1 2.8 6.3 5.3 3.2 2.5 6.6 4.8 3.4 2.4 7 4.4 3.5 2.1 7.2 4 0.8-2.3 1.6-4.6 0.9-2.2 1.8-4.4 0.9-2.3 1.9-4.4 1-2.2 2.1-4.4zm-39.7 4.2q0 0 0 0 0-0.1 0-0.1zm0 0c-5.5 5.5-10.4 11.5-14.8 18-4.4 6.4-8.2 13.3-11.3 20.4-3 7.2-5.5 14.6-7.1 22.2-1.7 7.6-2.7 15.4-2.9 23.2h57c0.3-22.7 3.5-44.4 9.2-63.4q-4.1-2-8-4.3-4-2.3-7.7-4.8-3.8-2.6-7.4-5.4-3.6-2.8-7-5.9zm-36.1 90.8h0.1q0 0 0 0zm0 0c0.2 7.7 1.2 15.5 2.9 23.1 1.6 7.6 4 15 7.1 22.2 3.1 7.2 6.9 14 11.2 20.5 4.4 6.4 9.4 12.4 14.9 17.9q3.4-3 7-5.8 3.6-2.8 7.4-5.4 3.7-2.5 7.7-4.8 3.9-2.3 8-4.3c-5.7-19-8.9-40.7-9.2-63.4zm41.2 88.5q6 5.4 12.7 10 6.6 4.5 13.8 8.2 7.2 3.6 14.8 6.3 7.6 2.7 15.5 4.4c-8.3-6.7-15.9-16.6-22.3-29.6q-1.1-2.1-2.1-4.3-0.9-2.2-1.9-4.4-0.9-2.2-1.7-4.5-0.9-2.2-1.7-4.5-3.6 1.9-7.2 4-3.6 2-7 4.3-3.4 2.4-6.6 4.9-3.3 2.5-6.3 5.3zm129.9-0.8c-6.4 13-14 22.9-22.3 29.6q7.9-1.7 15.5-4.4 7.6-2.7 14.8-6.3 7.1-3.6 13.8-8.2 6.6-4.5 12.7-9.9-3.1-2.8-6.4-5.3-3.2-2.5-6.6-4.8-3.4-2.3-7-4.4-3.5-2.1-7.2-3.9-0.8 2.2-1.6 4.5-0.9 2.2-1.8 4.4-0.9 2.2-1.9 4.4-1 2.2-2.1 4.4zm39.7-4.1c5.5-5.5 10.5-11.5 14.9-18 4.3-6.4 8.1-13.3 11.2-20.4 3.1-7.2 5.5-14.6 7.2-22.3 1.6-7.6 2.6-15.3 2.8-23.1h-57c-0.2 22.7-3.5 44.4-9.2 63.4q4.1 2 8 4.3 3.9 2.3 7.7 4.9 3.8 2.5 7.4 5.3 3.5 2.8 6.9 5.9z"/>
	</g>
	<g id="freepik--Browser--inject-3">
		<g id="elsxe71dwkkn">
			<path id="Layer" class="s0" d="m126.8 115.9h257.8v42.7h-257.9z"/>
		</g>
		<g id="elhqxq2v5urag">
			<path id="Layer" class="s0" d="m26.2 123.2c0-4.1 3.3-7.3 7.3-7.3h76.1c4 0 7.3 3.2 7.3 7.3v28.1c0 4-3.3 7.3-7.3 7.3h-76c-4.1 0-7.4-3.3-7.4-7.3z"/>
		</g>
		<path id="el9gmnw97k1fu" class="s4" d="m129.8 108.9h257.8v42.7h-257.9z"/>
		<path id="el835l6z5a0o2" class="s3" d="m170.3 132.2v10h-2.5v-22.3h2.5v10h5.4v-10h2.5v22.3h-2.5v-10z"/>
		<path id="el80yzg8wam1x" class="s3" d="m184 142.2v-20.1h-4.1v-2.2h10.7v2.2h-4.1v20.1z"/>
		<path id="el7iawy9t9cu6" class="s3" d="m195.5 142.2v-20.1h-4.1v-2.2h10.7v2.2h-4.1v20.1z"/>
		<path id="elpjr4kpa0y9r" fill-rule="evenodd" class="s3" d="m208.6 119.9c3.5 0 5 2 5 5.4v2.7c0 3.5-1.6 5.4-5.2 5.4h-2.2v8.8h-2.4v-22.3zm-0.2 11.3c1.8 0 2.7-0.9 2.7-3v-3c0-2-0.7-3.1-2.5-3.1h-2.4v9z"/>
		<path id="elp1hrs129qb" class="s3" d="m218 127v3.1h-2.4v-3.1zm0 12.2v3.1h-2.4v-3.1z"/>
		<path id="elwitu7jlfifb" class="s3" d="m230.8 119.9l-8.9 22.3h-2.1l8.8-22.3z"/>
		<path id="elippxrbr963j" class="s3" d="m237 119.9l-8.8 22.3h-2.2l8.8-22.3z"/>
		<path id="el8x12j4bg40h" class="s3" d="m244.7 142.2h-3.4l-3.1-22.3h2.5l2.6 19 2.5-19h2.4l2.5 19 2.5-19h2.2l-3 22.3h-3.3l-2.2-15.2z"/>
		<path id="elourr4c52qam" class="s3" d="m263.3 142.2h-3.4l-3.1-22.3h2.5l2.6 19 2.5-19h2.4l2.5 19 2.5-19h2.2l-3 22.3h-3.3l-2.1-15.2z"/>
		<path id="elrlljmoogw6" class="s3" d="m281.9 142.2h-3.4l-3.1-22.3h2.5l2.6 19 2.5-19h2.4l2.5 19 2.5-19h2.2l-3 22.3h-3.3l-2.1-15.2z"/>
		<path id="el5me3i89wcfh" class="s3" d="m295.7 139.1v3.1h-2.4v-3.1z"/>
		<path id="eleex8889p8qh" class="s3" d="m300.6 139.1v3.1h-2.4v-3.1z"/>
		<path id="el1lqg90kpbqb" class="s3" d="m305.6 139.1v3.1h-2.4v-3.1z"/>
		<g id="elxlkbr9ibac">
			<path id="Layer" class="s5" d="m182.5 95.5c-6.5 1.5-13-2.6-14.5-9.2-1.5-6.5 2.6-13 9.1-14.5 6.6-1.5 13.1 2.6 14.6 9.2 1.4 6.5-2.6 13-9.2 14.5z"/>
		</g>
		<path id="eleh7gd67ryd5" class="s4" d="m149.7 141.2q-0.4 0.2-0.8 0.4-0.4 0.2-0.9 0.4-0.4 0.2-0.8 0.3-0.3 0-0.6 0-0.3 0-0.6-0.1-0.3 0-0.6 0-0.3-0.1-0.5-0.1-0.3 0-0.6 0-0.4-0.1-0.7-0.2v-3.3l-1.4-1.7-1.9-0.8-1.8-2.7-1-1.4-1.5-1.3-0.8-1.2-0.2-2.1q0-0.2 0.1-0.4 0-0.1 0-0.3 0-0.2 0-0.3 0.1-0.2 0.1-0.4 0.5-1.3 1.3-2.6 0.9-1.2 2-2.2 1.1-1 2.3-1.7 1.3-0.7 2.8-1 0 0.1 0.1 0.1 0.1 0.1 0.1 0.2 0.1 0.1 0.1 0.2 0 0.1 0 0.2l-0.3 2.7-1.6 4.1-0.3 2.1-1.2 1.4-1 2.3 1.4 2.3q0.2 0.1 0.4 0.2 0.2 0.1 0.4 0.2 0.2 0.1 0.4 0.1 0.3 0.1 0.5 0.1c0.8 0 0.8 0.4 1.9-0.2q0.3-0.1 0.5-0.2 0.2-0.1 0.4-0.2 0.2-0.1 0.4-0.2 0.3-0.1 0.5-0.2l4.3 1.4 1.1 1.3 0.6 1.8 0.2 1-1.9 1.5q-0.4 0.3-0.9 0.5z"/>
		<path id="elnx98r01igt" class="s4" d="m154.4 121q1.4 1.1 2.3 2.6 1 1.5 1.5 3.2 0.5 1.6 0.5 3.4 0 0.3 0 0.7 0 0.3-0.1 0.6 0 0.4 0 0.7-0.1 0.3-0.2 0.6l-0.7-1.8q-0.2-0.4-0.5-0.8-0.2-0.4-0.3-0.8-0.2-0.5-0.3-0.9-0.2-0.5-0.2-1c0-1.3-0.6-1.1-0.6-1.1l-1.6 0.6h-1.7q-0.4-0.2-0.7-0.5-0.4-0.2-0.7-0.5-0.3-0.2-0.6-0.5-0.3-0.3-0.5-0.7c-0.8-1.1 0.5-3.1 0.5-3.1l0.6-2.1 0.4-0.5q1.6 0.7 2.9 1.9z"/>
		<path id="elsdcjxseq65" class="s4" d="m29.2 116.2c0-4.1 3.3-7.3 7.3-7.3h76.1c4 0 7.3 3.2 7.3 7.3v28.1c0 4-3.3 7.3-7.3 7.3h-76c-4.1 0-7.4-3.3-7.4-7.3z"/>
		<path id="elw29pqgjltu" class="s6" d="m36.1 131.7q-0.2-0.4-0.2-0.9 0-0.5 0.2-0.9 0.3-0.4 0.7-0.6l21.3-11.2q0.4-0.2 0.8-0.2 0.5 0 0.8 0.3 0.4 0.2 0.7 0.6 0.2 0.4 0.2 0.8v22.3q0 0.5-0.3 0.8-0.2 0.4-0.6 0.7-0.3 0.2-0.8 0.2-0.4 0-0.8-0.2l-21.3-11.1q-0.4-0.2-0.7-0.6z"/>
		<path id="elfei1kw4ymdo" class="s6" d="m110.3 132.3l-21.3 11.1q-0.3 0.2-0.8 0.2-0.4 0-0.8-0.2-0.4-0.3-0.6-0.7-0.2-0.3-0.3-0.8v-22.3q0.1-0.4 0.3-0.8 0.2-0.4 0.6-0.6 0.4-0.3 0.8-0.3 0.5 0 0.9 0.2l21.2 11.2q0.4 0.2 0.7 0.6 0.2 0.4 0.2 0.9 0 0.5-0.2 0.9-0.3 0.4-0.7 0.6z"/>
	</g>
	<g id="freepik--Character--inject-3">
		<path id="elaku7fob0g4u" class="s3" d="m375.4 282c1.3 0.6 2.4 1.5 3.3 2.6 1 1 1.7 2.3 2.1 3.6 0.4 1.4 0.5 2.8 0.3 4.2l-16.4 122.7h-133l16.8-125.3q0.2-1.8 1.1-3.4 0.9-1.6 2.2-2.8 1.4-1.2 3.1-1.8 1.7-0.7 3.5-0.7h112.9c1.4 0 2.8 0.4 4.1 0.9z"/>
		<path id="ela3w5zmg0bxh" class="s5" d="m142.2 353.5c1.1-7.7 37.5-54.2 39.2-60 1.7-5.9 9.8-20.5 14.6-22.9 4.8-2.4 25.2-4.2 27-4.2 1.7 0 31.6-1.7 35.3-2.8 3.8-1 28.8 5.9 28.8 5.9 0 0 40.9 14.9 45.1 15.3 4.1 0.3 5.2 14.6 8.3 20.4 3.1 5.9 23.2 50.6 25.6 61 2.5 10.4-1.7 20.8-10.4 25.7-8.6 4.8-17.3 6.6-25.6-0.4q-2-1.7-3.9-3.5-1.9-1.9-3.7-3.8-1.8-2-3.4-4-1.7-2.1-3.2-4.2l-4.2 39.1h-116.8c2.4-11.6 6.3-30.7 6.3-37.8 0-10.4-2.1-37.1-2.1-37.1 0 0-18.1 31.6-20.1 33.7-2.1 2-16.7 1-23.9-3.2-7.3-4.1-13.9-9.6-12.9-17.2z"/>
		<path id="eli1vhum25kfa" class="s7" d="m263.9 377.3c-10 7.5-25.5 18.7-37.1 25.1"/>
		<path id="elzeabwp7v5p" class="s7" d="m274 369.5c0 0-1.4 1.1-3.8 3"/>
		<path id="el5him6sx63l" class="s7" d="m256.1 389.8c0 0-18.5 13.2-28.7 17.9"/>
		<path id="elzvd2g6yz0gk" class="s7" d="m315.9 313.8q0.8-1.9 1.8-3.9"/>
		<path id="elohkkb5t3la" class="s7" d="m308.1 336c0 0 1.2-6.5 5.9-17.9"/>
		<path id="el33l05rtqpcb" class="s7" d="m304.6 334.3c0-0.1-0.4-7.5 2.2-12.3"/>
		<path id="el40o4731ysv7" class="s7" d="m199.1 340.2l-6.4-20.8"/>
		<path id="elgvxyc5477zu" class="s4" d="m228.5 287.6c0 0 4.1 8.5 2.8 10.1-1.3 1.5-6.3 9.1-6.3 9.1 0 0-0.9-7.6-1.6-10.1-0.6-2.5-1.2-7.8-1.2-7.8z"/>
		<path id="elntq8bs154q" class="s4" d="m235.1 276c0 0 7.9 13.8 8.8 17.9 1 4.1 5.4 18.6 5.4 18.6 0 0-9.1-7.2-15.1-11.7-6-4.4-12-12-12-12l6.6-11.3c2.2-3.1 6.3-1.5 6.3-1.5z"/>
		<path id="ell92ol3mc8j" class="s4" d="m288.6 245.4c0 0 1.3 2.5-0.6 3.5q-0.7 0.3-1.5 0.6-0.7 0.3-1.5 0.5-0.7 0.3-1.5 0.6-0.7 0.2-1.5 0.5l0.3 14.5c0 0-13.2 23.6-17.3 29.2-4.1 5.7-15.8 17.7-15.8 17.7 0 0-10.8-15-12.1-18.8-1.2-3.7-6.1-17.8-6.1-17.8 0 0 19.8-2.2 23.9-5 4.1-2.9 11.4-11 13.3-18.6 1.8-7.6-2.6-12 3.4-16.4 6-4.4 9.8-6.3 12.3-5 2.5 1.3 4.7 14.5 4.7 14.5z"/>
		<path id="elbtqjzuo19sq" class="s6" d="m283.9 230.9c0 0 7 7.4 4.7 14.5-2.3 7.1-6.6 5.7-6.6 5.7l-4.5-5.2z"/>
		<path id="elchjcf8or84" class="s4" d="m258.7 291.7l9.8 7.6-19.2 13.2 9.4-20.8z"/>
		<path id="eln9joljjhr9q" class="s4" d="m288.3 270.9q-0.3 1.7-0.7 3.3-0.4 1.6-1 3.2-0.5 1.6-1.2 3.1-0.7 1.5-1.5 3c-3.3 6.3-13.9 25.8-13.9 25.8l-11.3-17.6c0 0 8.8-10.1 12.6-15.4 3.8-5.4 11.3-18.2 11.3-18.2z"/>
		<path id="eldodrg9kjuib" class="s4" d="m283.6 240c0 0-1.9 4.4-2.5 5.4-0.7 0.9-5.7 3.4-5.7 3.4l-2.2-2.8 0.3-18.3v-14.4c0 0 9.8 2.8 11.3 8.5 1.6 5.6-1.2 18.2-1.2 18.2z"/>
		<path id="elxomxs3cbiea" class="s8" d="m217.8 219.3c0-0.1-4.4-3.8-6-8.6-1.6-4.7-3.8-11 1.2-18.2 5.1-7.3 19.9-25.2 36.2-25.2 16.4 0 35.9 10.7 44.5 17.3 8.5 6.6 15.1 19.5 17.9 25.2 2.8 5.7-0.6 9.8-1.9 12.3-2.7 5.5-1.3 12.4-3.9 18.1-3.3 7.2-11.2 7-17.8 8.7-1.3 0.3-3.8-1-5.7-6-1.9-5.1-1.6-14.5-7.2-24.9-5.7-10.4-37.8-21.1-57.3 1.2z"/>
		<path id="el2lgqjjg4sr2" class="s7" d="m308.3 223.3c-0.1 0-1.1-21.1-12.1-35"/>
		<path id="el5gkgi0vblml" class="s9" d="m236.2 176.4c4.5-3.1 8.1-5.2 14-6.3"/>
		<path id="eliwid9e08ii" class="s9" d="m217.5 199.6c0 0 5.9-14.8 15.2-20.7"/>
		<path id="el3k49mb7s9vq" class="s9" d="m251.5 176c5.2-1.7 8.4-2.5 8.4-2.5"/>
		<path id="elsi2g3kzmw7t" class="s9" d="m223.6 196.4c0 0 8.1-13.4 18.6-17.2q2.3-0.8 4.4-1.5"/>
		<path id="elacf0ajqcc6j" class="s9" d="m234.9 196.9q1.1-1.8 2.5-3.5 1.4-1.6 3-3.1 1.6-1.4 3.4-2.6 1.8-1.2 3.8-2c8.8-4 16.1-6 21.7-6"/>
		<path id="elnnfo00tkquj" class="s9" d="m263.7 186.3c2.3-0.8 3.7-1.2 3.7-1.2"/>
		<path id="elu0vqso5l4q9" class="s9" d="m243.3 196.7c-0.1 0 7.5-5.4 13.4-7.8 1-0.4 1.9-0.8 2.8-1.1"/>
		<path id="eliy1srnawi0a" class="s9" d="m271.5 210.6c0 0 10.2-4.5 19.3-4.8"/>
		<path id="el1d27l2ecry" class="s4" d="m275.1 218c0 0 0.3 7.3 0.3 12v18.9c0 5.3-1 10.3-1.6 11.3-0.6 0.9-0.3 1.9-4.1 7.2-3.8 5.4-12.6 10.7-21.7 13.6-9.2 2.8-16.7 1.2-21.8-1.9-5-3.2-11.3-12-10-20.5 1.2-8.5 2.5-20.4 1.2-24.2-1.2-3.8-2.5-17.4-1.9-25.2 0.7-7.9 12-9.8 12-9.8 29.9-6.9 47.6 18.6 47.6 18.6z"/>
		<path id="ele907uws27wj" class="s6" d="m278.7 225.3c0 0-3.3 0-3.3 4.7v18.9c0 5.3-0.9 10.4-1.5 11.3-0.7 1-0.3 1.9-4.1 7.3-3.8 5.3-12.6 10.7-21.8 13.5-9.1 2.8-16.6 1.3-21.7-1.9-5.1-3.1-11.3-12-10.1-20.5 0.6-3.6 1.1-7.8 1.4-11.8q0.5 0.9 0.9 1.9 0.5 1 1 1.9 0.5 0.9 1 1.8 0.5 0.9 1.1 1.8 0.6-0.4 1.2-0.8 0.6-0.5 1.2-0.9 0.6-0.4 1.3-0.7 0.6-0.4 1.3-0.7c3.1-1.6 7.2-0.6 14.5-0.3 7.2 0.3 9.1 3.1 13.8 5 4.7 1.9 6.9-0.4 11-3.8 4.2-3.4 5.1-16.1 6-21.4 1-5.4 1-8.5-3.4-10.7-3.8-1.9-5.3-9.5-5.8-13.7 14.6 10.5 16 19.1 16 19.1z"/>
		<path id="elwgrrjysb7lg" class="s6" d="m224.7 200.2q0.4-0.2 0.9-0.3 0.5-0.2 1-0.3 0.5-0.1 1-0.2 2.9-0.7 5.9-1 3-0.3 6-0.1 3.1 0.1 6 0.7 3 0.5 5.9 1.5c-3.2 2.5-9 7.4-15.7 7.4-6.6 0-10.5-5.1-12-7.4q0.5-0.2 1-0.3z"/>
		<path id="elx0aoy3qwpzf" class="s7" d="m244.9 245.4c0 2.2-1.3 5.4-8.5 5.4-7.3 0-4.8-4.1-4.5-8.2 0.3-4.1 1.9-14.2 1.9-14.2l-1.6-5.7"/>
		<path id="els767uzd1lgn" class="s10" d="m242.3 220.8c0 0 1-1.9 7.3-1.9q1.4 0.1 2.8 0.3 1.4 0.3 2.8 0.8 1.3 0.5 2.5 1.3 1.2 0.7 2.3 1.7"/>
		<path id="el1rbtel5dgml" class="s10" d="m218.4 221.5q1.1-0.7 2.4-1 1.2-0.3 2.5-0.3 1.3 0 2.5 0.3 1.2 0.3 2.4 1"/>
		<path id="elkn29to8wbgg" class="s11" d="m245.8 255.5q-2 0.9-4.1 1.4-2.1 0.5-4.3 0.5-2.2 0.1-4.4-0.3-2.1-0.4-4.2-1.2"/>
		<path id="eltabmztv30un" class="s3" d="m251.3 232.5c-1.1 0-2-1.2-2-2.7 0-1.5 0.9-2.7 2-2.7 1.1 0 2.1 1.2 2.1 2.7 0 1.5-1 2.7-2.1 2.7z"/>
		<path id="elo89ala1xwf9" class="s3" d="m226.9 232.5c-1.1 0-2.1-1.2-2.1-2.7 0-1.5 1-2.7 2.1-2.7 1.1 0 2 1.2 2 2.7 0 1.5-0.9 2.7-2 2.7z"/>
		<path id="elptw6m0jp45e" class="s7" d="m231.9 232.8q-0.4 0.5-1 0.9-0.5 0.4-1 0.8-0.6 0.4-1.2 0.8-0.6 0.3-1.2 0.6"/>
		<path id="elppwqd2fu9y" class="s7" d="m246.7 233.1c0 0 2.6 4.1 6 3.8"/>
		<path id="el1niz0qnrddti" class="s4" d="m243 300.2c0 0-8.2-1.3-11.1-3.4-2.9-2-3.9-4.6-1.7-7.6 2.2-3 2.7 0.4 5.2 2.9q0.7 0.7 1.6 1.4 0.8 0.6 1.6 1.2 0.9 0.6 1.8 1.2 0.8 0.6 1.7 1.1c3.1 1.6 0.9 3.2 0.9 3.2z"/>
		<path id="elbojv49p0t45" class="s4" d="m243.9 297.9c0 0 12.4 4.4 13.7 8.6q0.7 1.8 1.4 3.5 0.8 1.7 1.7 3.3 0.9 1.7 1.9 3.2 1 1.6 2.1 3.1c1.7 2.2 13.7 10.7 13.7 10.7l-10.3 17.8-17.9-11.6q-1.4-0.3-2.9-0.7-1.5-0.4-2.9-0.9-1.4-0.4-2.9-0.9-1.4-0.5-2.8-1.1c-4.2-1.8-11.3-8.3-12.4-10.7q-0.3-0.5-0.4-1.1-0.2-0.6-0.3-1.2 0-0.6 0-1.2 0.1-0.6 0.2-1.2c0 0-1.8-1.9-1.8-3.6 0-1.7 2.3-3.8 2.3-4q-0.1-0.4-0.2-0.7-0.1-0.3-0.1-0.7-0.1-0.3-0.1-0.7 0-0.3-0.1-0.7c0-1.1 2.2-4.2 1.9-4.5q-0.4-0.3-0.8-0.8-0.3-0.5-0.6-1-0.2-0.6-0.3-1.2-0.1-0.5 0-1.1 0.1-0.8 0.5-1.6 0.4-0.7 1-1.3 0.5-0.6 1.3-0.9 0.7-0.4 1.5-0.6c1.9-0.3 12.9 3.8 12.9 3.8z"/>
		<path id="elnkhvvd8y68b" class="s7" d="m227.7 302.6l6.8 3.8"/>
		<path id="el4orfg8q19he" class="s7" d="m226.3 309.9l6.7 4.7"/>
		<path id="elenrwumczio" class="s7" d="m225.8 317.5l4.7 3.6"/>
		<path id="elo4pt06j885h" class="s4" d="m220.1 332.9h-20.2q-0.5 0-0.9-0.2-0.5-0.2-0.8-0.5-0.4-0.3-0.6-0.7-0.2-0.5-0.3-0.9l-4.7-38.7q-0.1-0.6 0.1-1.2 0.2-0.5 0.5-1 0.4-0.4 0.9-0.6 0.6-0.3 1.1-0.2h29.6q0.5-0.1 1.1 0.2 0.5 0.2 0.9 0.6 0.3 0.5 0.5 1 0.2 0.6 0.1 1.2l-4.7 38.7q-0.1 0.4-0.3 0.9-0.2 0.4-0.6 0.7-0.3 0.3-0.8 0.5-0.4 0.2-0.9 0.2z"/>
		<path id="elzpkczv6hmk" class="s12" d="m196.8 286.4q0.8-0.6 1.3-1.3 0.5-0.7 0.9-1.6 0.3-0.8 0.5-1.7 0.1-1 0-1.9c-0.4-4.2-5.1-4-5.1-8.7 0-4.6 2.4-4.6 3.7-9.5"/>
		<path id="elqchx14mgzep" class="s12" d="m206.6 274.3c0.6 4.1 3.4 3.4 3.4 7.1 0 3.6-1.6 4.8-1.6 4.8"/>
		<path id="elgae1zgz9sdt" class="s5" d="m275.7 326.7l13.5 7.3-13.9 23.2-13.2-10 13.6-20.5z"/>
		<path id="el6q3voctr845" class="s5" d="m362.3 356.5c0 0 6.3 17 7 22.9 0.6 5.9-4.6 18.7-8 23.6-3.5 4.8-24.3 0-39.6-7.3-15.2-7.3-44-26.7-46.4-29.5-2.5-2.7 0-9 0-9l13.9-23.2c0 0 2.4-2.8 5.5-2.4 3.1 0.3 48.9 20.8 48.9 20.8"/>
		<path id="elaxeuoc9eazt" class="s5" d="m158.2 352.7c9.3-0.7 20.1 9.7 20.8 18.7 0.7 9.1-3.9 17-5.2 20.5-1.4 3.5-22.5 6.6-26.4 6.2-3.8-0.3-5.5-2.4-8-7.6-2.4-5.2-6.9-12.8-4.8-23.6 2.1-10.7 10.7-19.7 10.7-19.7"/>
		<path id="elj6xu5dnjr6q" class="s5" d="m147.4 398.1c0 0-1.7-8.6 11.1-12.8 12.8-4.2 17.3-0.3 16.6 4.5-0.6 4.9-20 12.8-27.7 8.3z"/>
		<path id="elg24it12rwiu" class="s4" d="m176.3 390.7c0 0 3.7 4.1 7.5 4.1 3.7 0 9.7 6.8 12.3 8.6 2.6 1.9 8.6 2.3 6.8 7.1-1.9 4.9-9.4 1.9-12.8 0-3.3-1.8-5.2-5.6-7.8-5.6-2.7 0-5.3 0.8-12.4 2.6-7.1 1.9-15.7-1.1-10.8-6.7 4.8-5.6 17.2-10.1 17.2-10.1z"/>
		<path id="elhu5cr0rw83i" class="s4" d="m150.1 399.9v9c0 3.3 2.2 8.3-2.3 6.5-4.5-1.8-5.6-8.3-4.5-12.9 1.1-4.7 6.4-4.7 6.4-4.7z"/>
		<path id="el7clz8dygfpk" class="s4" d="m158.3 407.2c0.8 5.6 0.4 8.6-3.4 7.8-3.7-0.7-6.3-10.8-6.3-15.7 0-4.9 8.6-7.5 8.6-7.5 0 0 0.4 9.8 1.1 15.4z"/>
		<path id="eljc2a0b09pp8" class="s4" d="m166.5 407.2c-0.3 5.2-5.2 6-7.5 2.6-2.2-3.4-3.3-15.4-1.1-20.2 2.3-4.9 8.3-1.2 8.3-1.2 0 0 0.7 13.5 0.3 18.8z"/>
		<path id="elldexwqd7e4" class="s4" d="m176.3 409c-1.2 2.7-5.7 4.2-8.3 1.5-2.6-2.6-1.5-16.8-2.2-19.8-0.8-3 0-6.4 4.8-7.1q0.4-0.1 0.8-0.1 0.4 0 0.8 0 0.4 0 0.8 0.1 0.4 0.1 0.8 0.3 0.8 0.3 1.5 0.8 0.6 0.6 1.1 1.3 0.5 0.8 0.8 1.6 0.2 0.9 0.2 1.8c-0.1 5-0.2 17.6-1.1 19.6z"/>
		<path id="elz9hvmycm3e" class="s7" d="m424 415.1h-422.7"/>
	</g>
	<g id="freepik--Device--inject-3">
		<path id="elau9qhswyciu" class="s13" d="m241.6 426.9l-93.3 12.1-79.6-24.7 68.8-1.4 104.1 14z"/>
		<path id="el797fikzj85x" class="s7" d="m160.8 417.1l32.8 4.9-17.4 0.5-29-4.3 13.5-1.1z"/>
		<path id="elkpo7yg3r9pe" class="s7" d="m145 419.3l43.4 7-42 2.4"/>
		<path id="elrnzgjd8pci" class="s13" d="m49.3 328.9l77.4 3.7 21.6 106.4-79.6-24.7-19.5-85.4z"/>
		<path id="el4nnbqyabnks" class="s14" d="m148.3 439l-79.6-24.7-0.2-1.3c7.2-0.1 16-3 24.5-13.2 14.5-17.5 27.1-35 38.1-45.4z"/>
		<path id="elqqgn4oncm3m" class="s4" d="m98.5 373.7c1.1 4.7-0.4 9.1-3.4 9.8-3 0.7-6.3-2.6-7.4-7.3-1.1-4.7 0.5-9.1 3.4-9.8 3-0.7 6.3 2.6 7.4 7.3z"/>
		<path id="eltmliqj435u" class="s14" d="m148.3 439l-1.6-6.8 94.8-5.3 0.1 4.2-93.3 7.9z"/>
	</g>
</svg>